<?xml version="1.0" encoding="UTF-8" standalone="no"?><!DOCTYPE svg PUBLIC "-//W3C//DTD SVG 1.1//EN" "http://www.w3.org/Graphics/SVG/1.1/DTD/svg11.dtd"><svg width="974px" height="176px" version="1.1" xmlns="http://www.w3.org/2000/svg" xmlns:xlink="http://www.w3.org/1999/xlink" xml:space="preserve" xmlns:serif="http://www.serif.com/" style="fill-rule:evenodd;clip-rule:evenodd;stroke-linejoin:round;stroke-miterlimit:2;"><g transform="matrix(1,0,0,1,-11271,-10770)"><g id="logotype-dark" serif:id="logotype dark" transform="matrix(1,0,0,1,-3948.27345,3734.710774)"><g transform="matrix(0.722738,0,0,0.722738,11788.016095,4678.841963)"><path d="M4957.944,3379.262L4859.48,3379.262L4859.48,3400.258L4957.944,3400.258L4957.944,3503.79L4798.664,3503.79C4762.826,3503.79 4748.346,3487.138 4748.346,3454.558L4748.346,3324.962C4748.346,3292.382 4762.826,3275.73 4798.664,3275.73L4957.944,3275.73L4957.944,3379.262ZM5029.983,3301.07L5132.067,3301.07C5167.905,3301.07 5182.385,3317.722 5182.385,3350.302L5182.385,3454.558C5182.385,3487.138 5168.267,3503.79 5132.429,3503.79L5029.983,3503.79C4994.144,3503.79 4979.664,3487.138 4979.664,3454.558L4979.664,3350.302C4979.664,3317.722 4994.144,3301.07 5029.983,3301.07ZM5091.523,3433.562L5091.523,3371.298L5070.527,3371.298L5070.527,3433.562L5091.523,3433.562ZM5254.423,3275.73L5378.227,3275.73C5414.065,3275.73 5428.545,3292.382 5428.545,3324.962L5428.545,3503.79L5326.823,3503.79L5326.823,3448.766L5305.827,3448.766L5305.827,3503.79L5204.105,3503.79L5204.105,3324.962C5204.105,3292.382 5218.585,3275.73 5254.423,3275.73ZM5326.823,3370.212L5326.823,3336.546L5305.827,3336.546L5305.827,3370.212L5326.823,3370.212ZM5505.29,3417.272L5450.266,3417.272L5450.266,3351.75C5450.266,3315.912 5466.918,3301.07 5499.498,3301.07L5644.298,3301.07L5644.298,3366.592L5589.274,3366.592L5589.274,3387.588L5644.298,3387.588L5644.298,3453.11C5644.298,3488.948 5627.646,3503.79 5595.066,3503.79L5450.266,3503.79L5450.266,3438.268L5505.29,3438.268L5505.29,3417.272ZM5721.042,3417.272L5666.018,3417.272L5666.018,3351.75C5666.018,3315.912 5682.67,3301.07 5715.25,3301.07L5860.051,3301.07L5860.051,3366.592L5805.026,3366.592L5805.026,3387.588L5860.051,3387.588L5860.051,3453.11C5860.051,3488.948 5843.398,3503.79 5810.818,3503.79L5666.018,3503.79L5666.018,3438.268L5721.042,3438.268L5721.042,3417.272ZM5932.089,3301.07L6034.173,3301.07C6070.011,3301.07 6084.491,3317.722 6084.491,3350.302L6084.491,3454.558C6084.491,3487.138 6070.373,3503.79 6034.535,3503.79L5932.089,3503.79C5896.251,3503.79 5881.771,3487.138 5881.771,3454.558L5881.771,3350.302C5881.771,3317.722 5896.251,3301.07 5932.089,3301.07ZM5993.629,3433.562L5993.629,3371.298L5972.633,3371.298L5972.633,3433.562L5993.629,3433.562Z" style="fill:rgb(127,67,0);"/></g><g transform="matrix(0.722738,0,0,0.722738,11795.047098,4668.757785)"><path d="M4957.944,3379.262L4859.48,3379.262L4859.48,3400.258L4957.944,3400.258L4957.944,3503.79L4798.664,3503.79C4762.826,3503.79 4748.346,3487.138 4748.346,3454.558L4748.346,3324.962C4748.346,3292.382 4762.826,3275.73 4798.664,3275.73L4957.944,3275.73L4957.944,3379.262ZM5029.983,3301.07L5132.067,3301.07C5167.905,3301.07 5182.385,3317.722 5182.385,3350.302L5182.385,3454.558C5182.385,3487.138 5168.267,3503.79 5132.429,3503.79L5029.983,3503.79C4994.144,3503.79 4979.664,3487.138 4979.664,3454.558L4979.664,3350.302C4979.664,3317.722 4994.144,3301.07 5029.983,3301.07ZM5091.523,3433.562L5091.523,3371.298L5070.527,3371.298L5070.527,3433.562L5091.523,3433.562ZM5254.423,3275.73L5378.227,3275.73C5414.065,3275.73 5428.545,3292.382 5428.545,3324.962L5428.545,3503.79L5326.823,3503.79L5326.823,3448.766L5305.827,3448.766L5305.827,3503.79L5204.105,3503.79L5204.105,3324.962C5204.105,3292.382 5218.585,3275.73 5254.423,3275.73ZM5326.823,3370.212L5326.823,3336.546L5305.827,3336.546L5305.827,3370.212L5326.823,3370.212ZM5505.29,3417.272L5450.266,3417.272L5450.266,3351.75C5450.266,3315.912 5466.918,3301.07 5499.498,3301.07L5644.298,3301.07L5644.298,3366.592L5589.274,3366.592L5589.274,3387.588L5644.298,3387.588L5644.298,3453.11C5644.298,3488.948 5627.646,3503.79 5595.066,3503.79L5450.266,3503.79L5450.266,3438.268L5505.29,3438.268L5505.29,3417.272ZM5721.042,3417.272L5666.018,3417.272L5666.018,3351.75C5666.018,3315.912 5682.67,3301.07 5715.25,3301.07L5860.051,3301.07L5860.051,3366.592L5805.026,3366.592L5805.026,3387.588L5860.051,3387.588L5860.051,3453.11C5860.051,3488.948 5843.398,3503.79 5810.818,3503.79L5666.018,3503.79L5666.018,3438.268L5721.042,3438.268L5721.042,3417.272ZM5932.089,3301.07L6034.173,3301.07C6070.011,3301.07 6084.491,3317.722 6084.491,3350.302L6084.491,3454.558C6084.491,3487.138 6070.373,3503.79 6034.535,3503.79L5932.089,3503.79C5896.251,3503.79 5881.771,3487.138 5881.771,3454.558L5881.771,3350.302C5881.771,3317.722 5896.251,3301.07 5932.089,3301.07ZM5993.629,3433.562L5993.629,3371.298L5972.633,3371.298L5972.633,3433.562L5993.629,3433.562Z" style="fill:rgb(18,18,18);"/></g></g></g></svg>